<?xml version="1.0" standalone="no"?>
<!DOCTYPE svg PUBLIC "-//W3C//DTD SVG 20010904//EN"
 "http://www.w3.org/TR/2001/REC-SVG-20010904/DTD/svg10.dtd">
<svg version="1.0" xmlns="http://www.w3.org/2000/svg"
 width="460.000000pt" height="460.000000pt" viewBox="0 0 460.000000 460.000000"
 preserveAspectRatio="xMidYMid meet">
<metadata>
Created by potrace 1.11, written by Peter Selinger 2001-2013
</metadata>
<g transform="translate(0.000000,460.000000) scale(0.100000,-0.100000)"
fill="#000000" stroke="none">
<path d="M1880 4585 c0 -8 8 -16 18 -17 9 0 23 -2 31 -2 8 -1 19 -19 26 -41 8
-31 12 -36 18 -22 4 10 11 15 17 12 12 -8 12 -16 1 -34 -8 -12 -16 -10 -50 13
-23 16 -41 34 -41 41 0 7 -7 12 -16 11 -19 -3 -41 -36 -24 -36 16 0 12 -30 -5
-36 -8 -4 -15 -13 -15 -21 0 -8 4 -12 9 -9 10 7 23 -19 14 -28 -4 -3 -13 -6
-21 -6 -8 0 -42 -18 -76 -41 -33 -22 -69 -41 -78 -42 -10 -1 -18 -6 -18 -12 0
-6 -19 -24 -42 -41 -23 -16 -63 -50 -88 -76 -25 -25 -61 -53 -81 -61 -37 -15
-50 -43 -49 -104 0 -14 -6 -23 -15 -23 -8 0 -15 -6 -15 -14 0 -7 -6 -19 -14
-25 -12 -10 -13 -57 -2 -87 2 -5 -8 -18 -23 -29 -17 -11 -32 -34 -39 -59 -22
-74 -43 -209 -48 -301 -2 -49 -8 -121 -13 -160 -11 -91 18 -343 53 -457 9 -29
11 -50 5 -53 -5 -4 -6 -13 0 -23 5 -9 12 -44 15 -77 9 -76 10 -471 2 -484 -3
-5 -2 -21 4 -36 6 -15 12 -68 15 -118 6 -108 12 -168 25 -250 5 -33 7 -63 5
-68 -3 -4 -1 -10 4 -13 4 -3 7 -24 5 -46 -2 -22 0 -40 4 -40 9 0 32 -58 32
-79 0 -7 -4 -10 -9 -7 -4 3 -17 -1 -27 -9 -10 -8 -27 -15 -37 -15 -9 0 -25 -4
-35 -9 -58 -28 -115 -54 -172 -77 -63 -25 -84 -33 -200 -76 -30 -12 -79 -31
-108 -44 -29 -13 -58 -24 -65 -24 -19 0 -140 -59 -162 -80 -11 -10 -59 -41
-108 -69 -48 -28 -109 -65 -135 -83 -99 -67 -265 -224 -329 -311 l-23 -31 0
-378 0 -378 2300 0 2300 0 0 494 0 495 -22 7 c-13 4 -52 35 -88 68 -36 34 -86
78 -111 98 -56 45 -219 148 -233 148 -6 0 -31 14 -55 30 -71 49 -275 104 -386
104 -64 1 -75 4 -125 38 -52 35 -204 88 -254 88 -11 0 -40 13 -62 28 -23 15
-50 32 -60 38 -18 10 -18 13 -2 50 22 52 30 104 31 192 0 40 3 74 6 76 3 2 5
37 5 78 -1 40 -3 158 -4 261 -1 104 -4 186 -6 184 -3 -2 -9 -33 -14 -68 -6
-35 -12 -80 -15 -99 -5 -27 -3 -32 6 -20 9 12 9 11 3 -5 -4 -11 -8 -45 -9 -75
-1 -30 -5 -62 -8 -70 -14 -35 -25 -92 -21 -104 3 -7 -2 -19 -11 -26 -13 -11
-19 -11 -33 4 -15 15 -15 18 -2 26 10 7 11 10 3 10 -23 0 -28 -5 -29 -25 -1
-41 -27 -116 -43 -124 -9 -4 -27 -5 -41 -1 -22 5 -25 12 -26 53 -1 48 -20 104
-39 122 -7 6 -18 29 -25 53 -7 23 -16 42 -20 42 -4 0 -18 10 -32 23 -14 12
-46 40 -72 62 -98 82 -146 129 -146 142 0 7 -13 16 -30 20 -16 3 -30 10 -30
15 0 5 -6 8 -12 6 -16 -6 -41 18 -34 31 3 5 -3 11 -15 14 -17 4 -19 2 -13 -16
4 -12 9 -24 13 -27 14 -12 31 -52 37 -90 4 -22 12 -40 19 -40 17 0 45 -44 45
-70 0 -25 -9 -25 -55 -2 -20 10 -34 23 -32 32 1 8 -9 27 -22 43 -30 33 -78 37
-107 7 -10 -12 -27 -28 -36 -37 -11 -11 -15 -25 -12 -39 4 -16 0 -26 -15 -33
-11 -7 -22 -7 -25 -2 -8 12 3 41 15 41 13 0 11 23 -4 43 -11 16 -15 16 -60 1
-31 -11 -47 -22 -47 -33 0 -10 -14 -28 -31 -40 -26 -19 -35 -21 -55 -12 -14 6
-24 19 -24 31 0 16 5 19 30 14 37 -8 41 15 8 46 -29 26 -82 26 -109 -1 -17
-17 -18 -23 -7 -37 7 -9 17 -20 22 -24 6 -4 -2 -10 -16 -13 -17 -5 -25 -12
-21 -21 3 -9 -2 -14 -14 -14 -10 0 -24 -5 -30 -11 -16 -16 -82 -29 -89 -17 -3
5 10 30 30 55 20 26 36 50 36 55 0 4 7 8 15 8 14 0 20 13 15 35 -1 5 4 29 11
52 18 68 10 67 -65 -2 -18 -16 -44 -39 -57 -51 -32 -28 -73 -78 -98 -117 -11
-18 -36 -48 -55 -66 -20 -19 -36 -39 -36 -44 0 -5 -11 -31 -25 -59 -14 -27
-25 -55 -25 -61 0 -7 -5 -29 -11 -50 -8 -31 -14 -37 -32 -34 -43 6 -74 36 -81
77 -3 22 -11 40 -16 40 -6 0 -10 6 -10 14 0 7 -14 16 -31 20 -27 5 -30 8 -19
21 12 14 8 30 -8 30 -4 1 -17 6 -29 13 -16 9 -23 27 -31 79 -28 182 -41 326
-37 408 14 285 20 540 12 544 -4 1 -1 11 9 22 10 11 14 25 9 36 -6 16 -8 15
-21 -7 -15 -25 -15 -25 -8 -2 3 13 14 32 25 43 10 10 17 24 15 31 -3 7 -7 28
-10 46 -5 27 -3 32 12 30 12 -2 18 5 20 22 2 14 9 31 15 38 7 9 7 16 -1 24 -9
9 -8 16 2 27 16 19 66 141 66 163 0 21 118 106 165 118 22 6 55 15 74 21 19 7
70 12 113 12 43 0 78 4 78 8 0 12 177 12 198 0 10 -5 81 -12 159 -16 167 -8
191 -3 278 55 21 14 43 20 73 18 24 -1 46 2 50 8 13 18 90 38 104 27 7 -6 34
-14 60 -17 26 -4 62 -18 81 -31 19 -12 44 -26 55 -29 29 -10 81 -72 105 -125
11 -26 31 -61 45 -78 13 -18 19 -33 13 -33 -8 0 -7 -6 1 -20 7 -11 17 -20 22
-20 4 0 2 7 -5 16 -11 14 -10 15 11 12 20 -2 26 -10 28 -35 2 -25 -1 -33 -12
-33 -9 0 -16 -1 -16 -3 0 -7 40 -79 51 -93 14 -17 14 -93 0 -107 -6 -6 -7 -23
-4 -38 3 -16 2 -36 -3 -46 -21 -49 -32 -136 -29 -230 5 -114 30 -291 45 -308
5 -6 6 -16 2 -21 -12 -13 -2 -114 10 -114 7 0 9 20 5 55 -3 30 -2 53 3 50 4
-3 11 13 15 34 3 22 13 47 20 58 22 28 18 52 -10 59 -18 4 -26 15 -30 38 -7
33 -2 117 7 132 3 5 6 54 7 109 1 55 6 134 12 176 11 77 3 119 -22 119 -6 0
-7 5 -4 10 5 8 11 8 20 0 9 -8 11 -5 9 12 -2 13 -6 95 -8 183 -2 88 -6 171
-10 185 -22 90 -37 158 -37 173 0 10 -7 21 -15 24 -7 3 -11 9 -8 15 3 5 -2 18
-11 28 -24 27 -32 175 -10 184 23 8 18 25 -10 38 -18 8 -25 19 -25 38 0 19 -7
30 -25 38 -14 7 -25 20 -25 31 0 24 -37 61 -61 61 -9 0 -19 9 -22 19 -3 14
-15 21 -38 23 -29 2 -34 6 -31 26 3 20 -1 22 -36 22 -23 0 -45 -6 -52 -15 -16
-20 -49 -19 -91 2 -21 11 -53 17 -86 16 -34 -1 -55 3 -64 13 -6 8 -17 14 -24
14 -7 0 -18 7 -25 15 -9 11 -33 15 -87 15 -47 0 -72 4 -68 10 4 6 -5 10 -19
10 -14 0 -26 5 -26 11 0 18 -77 2 -124 -26 -43 -25 -66 -21 -66 11 0 7 -5 16
-12 20 -8 5 -9 2 -5 -9 9 -25 -12 -31 -35 -10 -12 10 -18 13 -14 6 4 -8 -6
-19 -26 -30 -18 -9 -35 -17 -38 -18 -3 0 -11 -4 -17 -8 -8 -5 -13 -4 -13 2 0
6 5 11 10 11 6 0 10 9 10 19 0 13 -9 21 -30 26 -16 4 -30 10 -30 15 0 5 14 5
31 0 27 -8 32 -6 36 11 3 12 11 18 19 15 9 -3 14 2 14 14 0 19 -7 20 -95 20
-78 0 -95 -3 -95 -15z m584 -2354 c7 -11 -52 -26 -62 -16 -8 8 18 25 40 25 9
0 19 -4 22 -9z m46 -1 c0 -5 -4 -10 -9 -10 -6 0 -13 5 -16 10 -3 6 1 10 9 10
9 0 16 -4 16 -10z m134 -399 c16 -11 34 -17 41 -14 7 2 20 -6 29 -19 9 -13 19
-22 22 -20 14 7 44 -61 44 -98 0 -33 -3 -38 -17 -33 -11 4 -14 3 -9 -5 4 -6 2
-20 -4 -32 -5 -11 -14 -29 -20 -40 -5 -11 -10 -29 -10 -41 0 -17 -3 -19 -14
-10 -14 12 -46 5 -46 -9 0 -4 -12 -11 -26 -14 -42 -11 -72 15 -79 71 -9 68
-15 83 -24 58 -8 -19 -8 -19 -19 0 -10 18 -11 19 -12 2 0 -31 -20 -7 -21 26
l-1 32 -7 -30 c-5 -25 -8 -27 -14 -12 -10 27 -9 65 4 72 20 13 -21 44 -57 43
-39 -1 -47 3 -39 24 4 9 36 22 83 33 42 10 81 22 87 26 16 16 79 10 109 -10z
m-481 -40 c49 -5 91 -11 94 -14 7 -8 -20 -42 -34 -43 -38 -3 -40 -5 -36 -28 6
-31 -31 -66 -69 -66 -24 0 -30 -5 -34 -30 -6 -30 -13 -34 -46 -31 -10 1 -18
-3 -18 -8 0 -6 -9 -11 -19 -11 -13 0 -21 -8 -23 -22 -3 -23 -4 -23 -67 -16
-22 2 -44 28 -65 76 -17 38 -18 46 -6 65 8 12 20 34 27 49 8 15 22 29 31 32 9
3 22 16 27 28 7 17 19 23 42 24 18 0 35 3 39 6 3 4 20 5 37 2 18 -2 72 -8 120
-13z m275 -122 c-3 -33 -4 -33 -8 8 -3 23 -2 39 3 34 5 -5 7 -24 5 -42z m80
-154 c-3 -3 -9 2 -12 12 -6 14 -5 15 5 6 7 -7 10 -15 7 -18z m42 -30 c0 -5 -5
-3 -10 5 -5 8 -10 20 -10 25 0 6 5 3 10 -5 5 -8 10 -19 10 -25z m-475 -4 c3
-5 1 -12 -5 -16 -5 -3 -10 1 -10 9 0 18 6 21 15 7z m366 -71 c5 0 9 -7 9 -15
0 -18 -2 -18 -34 -4 -26 12 -25 35 1 25 8 -3 19 -6 24 -6z m639 -91 c0 -189
-93 -472 -187 -566 -89 -89 -209 -187 -189 -154 4 6 1 11 -8 11 -18 0 -21 15
-6 25 5 3 7 12 4 19 -3 8 3 17 14 20 13 5 18 13 15 25 -3 12 5 26 21 39 14 11
26 29 26 40 0 32 10 51 25 46 8 -4 15 5 20 25 3 16 13 35 21 42 8 6 14 18 14
26 0 7 11 26 26 41 18 20 24 35 22 58 -3 23 0 30 9 27 7 -3 13 2 13 11 0 26 1
30 12 44 6 7 8 15 5 18 -3 4 3 23 14 42 10 20 19 42 19 47 0 6 9 21 20 33 11
12 19 25 18 29 -3 8 15 59 35 101 6 12 16 22 24 22 10 0 13 -18 13 -71z
m-1462 -85 c12 -21 25 -47 28 -56 4 -10 10 -15 15 -12 5 3 9 -1 9 -8 0 -26 35
-98 48 -98 7 0 15 -7 18 -15 4 -8 10 -12 15 -9 17 10 23 -29 6 -41 -21 -15
-21 -29 -1 -46 13 -10 17 -10 26 2 7 11 9 9 5 -8 -4 -16 -1 -20 11 -16 9 4 13
2 9 -4 -4 -6 1 -10 11 -9 12 1 16 -5 14 -22 -3 -19 0 -23 15 -18 11 3 28 -1
39 -9 18 -14 18 -14 -8 -15 -18 0 -28 -5 -28 -15 0 -8 5 -15 10 -15 6 0 10 5
10 10 0 6 5 10 10 10 6 0 10 -6 10 -13 0 -15 45 -57 60 -57 6 0 9 -6 8 -12 -2
-9 8 -12 27 -11 17 0 24 -1 18 -4 -21 -8 -15 -20 14 -28 21 -5 24 -8 12 -16
-11 -7 -8 -9 11 -10 14 0 20 -3 13 -5 -8 -4 -9 -13 -1 -35 5 -16 13 -27 16
-25 4 2 7 -29 7 -69 0 -46 5 -79 13 -86 17 -18 15 -42 -4 -35 -8 3 -12 2 -9
-4 3 -6 -1 -10 -10 -10 -9 0 -14 -4 -10 -10 3 -5 12 -7 20 -3 18 6 19 -10 3
-36 -11 -18 -14 -18 -40 -5 -15 8 -31 15 -35 15 -22 3 -53 20 -53 28 0 5 -9
12 -19 16 -29 9 -207 190 -236 239 -61 104 -125 374 -125 529 0 100 9 108 48
41z m805 -781 c2 -5 -6 -19 -20 -33 l-24 -25 -5 23 c-4 12 -13 22 -21 22 -8 0
-11 5 -8 10 7 12 72 14 78 3z m29 -143 c5 -34 0 -44 -26 -53 -16 -6 -17 -5 -6
8 7 9 8 15 2 15 -7 0 -7 10 1 30 14 38 24 38 29 0z"/>
<path d="M2110 4589 c11 -8 12 -12 3 -16 -7 -2 -13 -9 -13 -15 0 -6 6 -6 15 2
20 17 19 40 -2 40 -16 0 -16 -2 -3 -11z"/>
<path d="M3930 4269 c0 -5 5 -7 10 -4 6 3 10 8 10 11 0 2 -4 4 -10 4 -5 0 -10
-5 -10 -11z"/>
<path d="M2630 3332 c-8 -5 -42 -12 -74 -15 -33 -3 -63 -12 -67 -19 -7 -10 -9
-10 -9 0 0 25 -28 11 -41 -20 -7 -18 -14 -37 -14 -43 0 -5 -9 -28 -19 -50 -16
-36 -17 -49 -6 -140 7 -55 11 -104 9 -110 -2 -5 0 -35 5 -65 8 -57 24 -89 36
-70 4 7 33 -4 81 -29 135 -73 159 -82 219 -86 62 -4 110 16 125 52 11 26 11
31 0 27 -29 -11 -23 15 7 33 32 19 34 19 82 1 40 -15 51 -17 57 -6 12 18 6 31
-20 44 -21 11 -21 11 9 17 32 7 32 8 34 92 1 34 5 40 26 45 23 5 25 10 28 67
1 34 -2 64 -8 68 -5 3 -10 15 -10 26 0 20 -73 99 -91 99 -6 0 -7 -4 -4 -10 3
-5 2 -10 -3 -10 -6 0 -13 16 -16 35 -5 27 -13 36 -34 41 -15 3 -37 9 -50 15
-32 13 -234 22 -252 11z m280 -400 c57 -55 68 -86 18 -51 -18 13 -35 26 -38
29 -3 3 -18 13 -35 22 -36 20 -46 48 -16 48 12 0 44 -22 71 -48z"/>
<path d="M1990 3310 c-8 -6 -40 -10 -70 -10 -30 -1 -77 -6 -105 -12 -27 -5
-67 -10 -88 -9 -22 0 -35 -3 -32 -9 4 -6 -17 -10 -55 -10 -41 0 -69 -6 -88
-17 -32 -22 -81 -76 -100 -111 -11 -23 -11 -28 2 -38 13 -9 13 -13 1 -32 -8
-11 -14 -31 -13 -43 5 -42 56 -76 73 -49 20 32 53 -56 35 -90 -6 -11 -6 -21
-1 -24 11 -7 38 17 46 43 7 24 112 109 137 111 3 0 4 -9 1 -20 -4 -16 -2 -19
11 -14 9 3 16 2 16 -4 0 -5 -7 -12 -15 -16 -8 -3 -14 -15 -12 -26 2 -17 -9
-26 -52 -44 -30 -13 -74 -42 -99 -64 l-44 -40 26 -17 c18 -12 36 -15 65 -10
52 9 80 -6 74 -39 -5 -23 -2 -25 64 -32 37 -4 72 -7 77 -5 5 1 25 4 45 6 110
11 250 104 252 167 3 67 0 84 -20 131 -19 45 -20 74 -2 63 4 -3 22 11 40 30
26 27 32 41 29 64 -3 16 0 31 6 33 6 3 -1 14 -16 26 -16 13 -28 28 -28 36 0 7
-24 29 -52 48 -40 27 -56 32 -66 24 -10 -8 -15 -8 -21 1 -4 7 -12 8 -21 2z"/>
<path d="M1220 2733 c0 -11 7 -28 15 -39 8 -10 15 -31 15 -46 0 -16 5 -28 11
-28 6 0 9 -6 6 -13 -3 -8 1 -14 9 -14 15 0 27 63 22 117 -3 32 -6 35 -40 38
-32 3 -38 0 -38 -15z"/>
</g>
</svg>
